<svg xmlns="http://www.w3.org/2000/svg" version="1.1" xmlns:xlink="http://www.w3.org/1999/xlink" xmlns:svgjs="http://svgjs.dev/svgjs" width="2000" height="1247" viewBox="0 0 2000 1247"><g transform="matrix(1,0,0,1,-1.2121212121212466,0.5048582995951847)"><svg viewBox="0 0 396 247" data-background-color="#ffffff" preserveAspectRatio="xMidYMid meet" height="1247" width="2000" xmlns="http://www.w3.org/2000/svg" xmlns:xlink="http://www.w3.org/1999/xlink"><g id="tight-bounds" transform="matrix(1,0,0,1,0.2400000000000091,-0.09999999999999432)"><svg viewBox="0 0 395.52 247.2" height="247.2" width="395.52"><g><svg></svg></g><g><svg viewBox="0 0 395.52 247.2" height="247.2" width="395.52"><g transform="matrix(1,0,0,1,75.54432,89.71314454878845)"><svg viewBox="0 0 244.43135999999998 67.77371090242309" height="67.77371090242309" width="244.43135999999998"><g><svg viewBox="0 0 244.43135999999998 67.77371090242309" height="67.77371090242309" width="244.43135999999998"><g><svg viewBox="0 0 345.1900720623841 95.711172864" height="67.77371090242309" width="244.43135999999998"><g transform="matrix(1,0,0,1,0,13.227810432000005)"><svg viewBox="0 0 244.43135999999998 69.255552" height="69.255552" width="244.43135999999998"><g id="textblocktransform"><svg viewBox="0 0 244.43135999999998 69.255552" height="69.255552" width="244.43135999999998" id="textblock"><g><svg viewBox="0 0 244.43135999999998 69.255552" height="69.255552" width="244.43135999999998"><g transform="matrix(1,0,0,1,0,0)"><svg width="244.43135999999998" viewBox="3.56 -36.04 128.9 36.53" height="69.255552" data-palette-color="#bc13fe"><path d="M16.97-15.97L7.96-15.97 7.91-20.56 15.77-20.56Q18.73-20.56 20.34-21.85 21.95-23.14 21.95-25.51L21.95-25.51Q21.95-28.13 20.42-29.3 18.9-30.47 15.7-30.47L15.7-30.47 9.86-30.47 9.86 0 3.56 0 3.56-35.55 15.7-35.55Q21.58-35.55 24.91-33.22 28.25-30.88 28.25-25.93L28.25-25.93Q28.25-23.73 27.19-21.9 26.12-20.07 24.05-18.92 21.97-17.77 18.87-17.58L18.87-17.58 16.97-15.97ZM16.7 0L5.96 0 8.81-5.05 16.7-5.05Q19.73-5.05 21.26-6.54 22.8-8.03 22.8-10.4L22.8-10.4Q22.8-12.13 22.19-13.38 21.58-14.62 20.31-15.3 19.04-15.97 16.97-15.97L16.97-15.97 10.03-15.97 10.08-20.56 19.07-20.56 20.48-18.8Q23.44-18.75 25.33-17.55 27.22-16.36 28.15-14.47 29.08-12.57 29.08-10.38L29.08-10.38Q29.08-5.27 25.79-2.64 22.51 0 16.7 0L16.7 0ZM63.64-18.68L63.64-16.85Q63.64-11.45 61.79-7.57 59.93-3.69 56.63-1.6 53.32 0.49 48.87 0.49L48.87 0.49Q44.53 0.49 41.17-1.6 37.81-3.69 35.92-7.57 34.03-11.45 34.03-16.85L34.03-16.85 34.03-18.68Q34.03-24.07 35.91-27.97 37.79-31.86 41.14-33.95 44.48-36.04 48.83-36.04L48.83-36.04Q53.27-36.04 56.59-33.95 59.91-31.86 61.78-27.97 63.64-24.07 63.64-18.68L63.64-18.68ZM57.32-16.85L57.32-18.73Q57.32-22.66 56.32-25.35 55.32-28.05 53.42-29.43 51.51-30.81 48.83-30.81L48.83-30.81Q46.19-30.81 44.3-29.43 42.4-28.05 41.39-25.35 40.38-22.66 40.38-18.73L40.38-18.73 40.38-16.85Q40.38-12.92 41.4-10.21 42.43-7.5 44.33-6.1 46.24-4.71 48.87-4.71L48.87-4.71Q51.58-4.71 53.48-6.1 55.37-7.5 56.35-10.21 57.32-12.92 57.32-16.85L57.32-16.85ZM98.14-18.68L98.14-16.85Q98.14-11.45 96.28-7.57 94.43-3.69 91.12-1.6 87.81 0.49 83.37 0.49L83.37 0.49Q79.02 0.49 75.67-1.6 72.31-3.69 70.42-7.57 68.53-11.45 68.53-16.85L68.53-16.85 68.53-18.68Q68.53-24.07 70.41-27.97 72.29-31.86 75.63-33.95 78.97-36.04 83.32-36.04L83.32-36.04Q87.76-36.04 91.08-33.95 94.4-31.86 96.27-27.97 98.14-24.07 98.14-18.68L98.14-18.68ZM91.82-16.85L91.82-18.73Q91.82-22.66 90.82-25.35 89.81-28.05 87.91-29.43 86.01-30.81 83.32-30.81L83.32-30.81Q80.68-30.81 78.79-29.43 76.9-28.05 75.89-25.35 74.87-22.66 74.87-18.73L74.87-18.73 74.87-16.85Q74.87-12.92 75.9-10.21 76.92-7.5 78.83-6.1 80.73-4.71 83.37-4.71L83.37-4.71Q86.08-4.71 87.97-6.1 89.86-7.5 90.84-10.21 91.82-12.92 91.82-16.85L91.82-16.85ZM110.47-35.55L110.47 0 104.17 0 104.17-35.55 110.47-35.55ZM131.8-35.55L117.45-18.33 109.2-9.59 108.1-15.89 113.91-23.22 124.11-35.55 131.8-35.55ZM124.97 0L113.47-16.72 117.81-21.02 132.46 0 124.97 0Z" opacity="1" transform="matrix(1,0,0,1,0,0)" fill="#bc13fe" class="wordmark-text-0" data-fill-palette-color="primary" id="text-0"></path></svg></g></svg></g></svg></g></svg></g><g transform="matrix(1,0,0,1,260.78093369395197,0)"><svg viewBox="0 0 84.40913836843212 95.711172864" height="95.711172864" width="84.40913836843212"><g><svg xmlns="http://www.w3.org/2000/svg" xmlns:xlink="http://www.w3.org/1999/xlink" version="1.1" x="0" y="0" viewBox="5.913 0 88.17300000000002 99.97899999999998" enable-background="new 0 0 100 100" xml:space="preserve" height="95.711172864" width="84.40913836843212" class="icon-icon-0" data-fill-palette-color="accent" id="icon-0"><g fill="#bc13fe" data-fill-palette-color="accent"><path fill-rule="evenodd" clip-rule="evenodd" d="M5.913 5.835v58.376c0.874 0.021 1.472 0.674 1.472 1.606 0 0.897-0.566 1.565-1.472 1.601v16.328c3.223 0 5.835 2.612 5.835 5.836h30.397c0-3.224 2.612-5.836 5.835-5.836V67.383c-0.753-0.122-1.264-0.735-1.264-1.564 0-0.843 0.521-1.435 1.264-1.562V5.835c-3.223 0-5.835-2.614-5.835-5.835H11.749C11.749 3.222 9.136 5.835 5.913 5.835zM44.466 65.818c0 0.922-0.588 1.613-1.535 1.613-0.896 0-1.512-0.691-1.512-1.613 0-0.947 0.641-1.614 1.537-1.614S44.466 64.871 44.466 65.818zM39.169 65.818c0 0.922-0.589 1.613-1.536 1.613-0.896 0-1.511-0.691-1.511-1.613 0-0.947 0.641-1.614 1.536-1.614C38.555 64.204 39.169 64.871 39.169 65.818zM33.872 65.818c0 0.922-0.589 1.613-1.536 1.613-0.897 0-1.509-0.691-1.509-1.613 0-0.947 0.639-1.614 1.535-1.614C33.257 64.204 33.872 64.871 33.872 65.818zM28.574 65.818c0 0.922-0.589 1.613-1.536 1.613-0.896 0-1.511-0.691-1.511-1.613 0-0.947 0.639-1.614 1.536-1.614C27.96 64.204 28.574 64.871 28.574 65.818zM23.277 65.818c0 0.922-0.589 1.613-1.536 1.613-0.896 0-1.509-0.691-1.509-1.613 0-0.947 0.64-1.614 1.535-1.614C22.664 64.204 23.277 64.871 23.277 65.818zM17.979 65.818c0 0.922-0.587 1.613-1.535 1.613-0.898 0-1.511-0.691-1.511-1.613 0-0.947 0.64-1.614 1.536-1.614C17.365 64.204 17.979 64.871 17.979 65.818zM12.683 65.818c0 0.922-0.589 1.613-1.537 1.613-0.896 0-1.509-0.691-1.509-1.613 0-0.947 0.639-1.614 1.535-1.614C12.068 64.204 12.683 64.871 12.683 65.818zM36.7 9.803v18.193h-1.399V9.803H36.7zM33.944 9.803v18.193h-1.442V9.803H33.944zM31.146 9.803v18.193h-4.199V9.803H31.146zM25.504 9.803v18.193h-1.356V9.803H25.504zM22.749 9.803v18.193h-2.799V9.803H22.749zM18.506 9.803v18.193H17.15V9.803H18.506z" fill="#bc13fe" data-fill-palette-color="accent"></path><path fill-rule="evenodd" clip-rule="evenodd" d="M91.371 19.312L64 6.092c-1.402 2.9-4.891 4.118-7.793 2.716l-4.104 8.498v46.951 3.475 16.016 4.122H47.98c-0.944 0-1.714 0.769-1.714 1.714v4.122h-4.121H39.42l12.989 6.273c1.402-2.902 4.892-4.119 7.794-2.717l7.116-14.735c-0.624-0.438-0.818-1.212-0.457-1.959 0.366-0.758 1.092-1.064 1.816-0.856l25.408-52.606C91.186 25.703 89.971 22.212 91.371 19.312zM55.296 74.981c-0.4 0.829-1.231 1.195-2.085 0.783-0.808-0.389-1.059-1.277-0.657-2.109 0.41-0.852 1.275-1.175 2.084-0.784C55.444 73.262 55.708 74.128 55.296 74.981zM72.122 20.902l-7.911 16.382-1.221-0.59 7.911-16.382L72.122 20.902zM64.6 17.269l1.222 0.59-7.913 16.382-1.221-0.589L64.6 17.269zM60.064 77.285c-0.399 0.831-1.231 1.195-2.084 0.785-0.808-0.391-1.06-1.28-0.658-2.11 0.412-0.853 1.277-1.175 2.085-0.785C60.215 75.563 60.478 76.434 60.064 77.285zM59.209 34.868l7.911-16.382 2.521 1.216-7.912 16.383L59.209 34.868zM64.836 79.589c-0.401 0.829-1.231 1.197-2.085 0.784-0.808-0.39-1.06-1.279-0.659-2.109 0.412-0.854 1.279-1.176 2.086-0.785C64.983 77.869 65.247 78.735 64.836 79.589zM65.51 37.912l7.912-16.382 3.78 1.825-7.911 16.383L65.51 37.912zM70.512 40.328l7.912-16.383 1.298 0.627-7.911 16.382L70.512 40.328zM74.293 42.154l-1.262-0.609 7.913-16.383 1.26 0.609L74.293 42.154z" fill="#bc13fe" data-fill-palette-color="accent"></path></g></svg></g></svg></g></svg></g></svg></g></svg></g><g><path d="M245.816 0c68.262 0 123.6 55.338 123.6 123.6 0 68.262-55.338 123.6-123.6 123.6-54.384 0-100.565-35.124-117.095-83.925l2.338 0c16.44 47.558 61.61 81.713 114.757 81.714 67.041 0 121.389-54.348 121.388-121.389 0-67.041-54.348-121.389-121.388-121.389-53.147 0-98.317 34.155-114.757 81.714l-2.338 0c16.53-48.801 62.71-83.925 117.095-83.925z" fill="#bc13fe" stroke="transparent" data-fill-palette-color="tertiary"></path></g></svg></g><defs></defs></svg><rect width="395.52" height="247.2" fill="none" stroke="none" visibility="hidden"></rect></g></svg></g></svg>