<svg xmlns="http://www.w3.org/2000/svg" version="1.1" xmlns:xlink="http://www.w3.org/1999/xlink" xmlns:svgjs="http://svgjs.dev/svgjs" width="2000" height="681" viewBox="0 0 2000 681"><g transform="matrix(1,0,0,1,-1.2121212121212466,-0.6108674962335954)"><svg viewBox="0 0 396 135" data-background-color="#ffffff" preserveAspectRatio="xMidYMid meet" height="681" width="2000" xmlns="http://www.w3.org/2000/svg" xmlns:xlink="http://www.w3.org/1999/xlink"><g id="tight-bounds" transform="matrix(1,0,0,1,0.2400000000000091,0.12109708075115577)"><svg viewBox="0 0 395.52 134.7578058384977" height="134.7578058384977" width="395.52"><g><svg viewBox="0 0 674.9716356654544 229.96990449407997" height="134.7578058384977" width="395.52"><g transform="matrix(1,0,0,1,277.4740356654545,1.44859312405994)"><svg viewBox="0 0 397.4975999999999 227.0727182459601" height="227.0727182459601" width="397.4975999999999"><g id="textblocktransform"><svg viewBox="0 0 397.4975999999999 227.0727182459601" height="227.0727182459601" width="397.4975999999999" id="textblock"><g><rect width="397.4975999999999" height="12.155438206603636" x="0" y="149.1085338226292" fill="#ffdc00" opacity="1" stroke-width="0" stroke="transparent" fill-opacity="1" class="rect-qz-0" data-fill-palette-color="primary" rx="1%" id="qz-0" data-palette-color="#ffdc00"></rect></g><g transform="matrix(1,0,0,1,0.9887999999999693,0)"><svg viewBox="0 0 395.52 134.78930033317465" height="134.78930033317465" width="395.52"><g transform="matrix(1,0,0,1,0,0)"><svg width="395.52" viewBox="5.25 -35.4 105.05 35.8" height="134.78930033317465" data-palette-color="#ffdc00"><path d="M34.1 0L28.65 0 21.1-10.75Q19.7-10.65 18.9-10.65L18.9-10.65 10.25-10.65 10.25 0 5.25 0 5.25-35 18.9-35Q25.7-35 29.6-31.75 33.5-28.5 33.5-22.8L33.5-22.8Q33.5-18.75 31.5-15.9 29.5-13.05 25.8-11.75L25.8-11.75 34.1 0ZM18.75-14.9Q23.5-14.9 26-16.95 28.5-19 28.5-22.8L28.5-22.8Q28.5-26.6 26-28.63 23.5-30.65 18.75-30.65L18.75-30.65 10.25-30.65 10.25-14.9 18.75-14.9ZM65.85-7.2L65.85-17.7 70.65-17.7 70.65 0 66.25 0 66.25-2.35Q62.4 0.4 56.5 0.4L56.5 0.4Q51.75 0.4 47.67-1.7 43.6-3.8 41.17-7.83 38.75-11.85 38.75-17.35L38.75-17.35Q38.75-22.55 41.17-26.65 43.6-30.75 47.87-33.08 52.15-35.4 57.5-35.4L57.5-35.4Q61.7-35.4 65.12-34.02 68.55-32.65 70.95-30L70.95-30 67.85-26.9Q63.65-30.95 57.7-30.95L57.7-30.95Q53.7-30.95 50.52-29.2 47.35-27.45 45.55-24.35 43.75-21.25 43.75-17.35L43.75-17.35Q43.75-13.2 45.57-10.15 47.4-7.1 50.4-5.53 53.4-3.95 56.9-3.95L56.9-3.95Q59.35-3.95 61.67-4.78 64-5.6 65.85-7.2L65.85-7.2ZM103.75-18.15Q106.8-17.3 108.55-15.08 110.3-12.85 110.3-9.45L110.3-9.45Q110.3-4.9 106.87-2.45 103.45 0 96.9 0L96.9 0 80.2 0 80.2-35 95.9-35Q101.9-35 105.17-32.6 108.45-30.2 108.45-25.95L108.45-25.95Q108.45-23.2 107.17-21.2 105.9-19.2 103.75-18.15L103.75-18.15ZM95.45-30.95L85.2-30.95 85.2-19.75 95.45-19.75Q99.3-19.75 101.37-21.18 103.45-22.6 103.45-25.35L103.45-25.35Q103.45-28.1 101.37-29.53 99.3-30.95 95.45-30.95L95.45-30.95ZM96.7-4.05Q100.95-4.05 103.1-5.45 105.25-6.85 105.25-9.85L105.25-9.85Q105.25-15.7 96.7-15.7L96.7-15.7 85.2-15.7 85.2-4.05 96.7-4.05Z" opacity="1" transform="matrix(1,0,0,1,0,0)" fill="#ffdc00" class="wordmark-text-0" data-fill-palette-color="primary" id="text-0"></path></svg></g></svg></g><g transform="matrix(1,0,0,1,0,175.58320551868738)"><svg viewBox="0 0 395.52 51.48951272727271" height="51.48951272727271" width="395.52"><g transform="matrix(1,0,0,1,0,0)"><svg width="395.52" viewBox="0.9 -37.58 291.71000000000004 37.98" height="51.48951272727271" data-palette-color="#ffdc00"><path d="M27.48-9.43L27.48-9.43Q27.78-9.43 28.08-9.31 28.38-9.2 28.65-8.93L28.65-8.93 32-5.4Q29.8-2.53 26.49-1.06 23.18 0.4 18.65 0.4L18.65 0.4Q14.5 0.4 11.21-1.01 7.93-2.43 5.64-4.91 3.35-7.4 2.13-10.81 0.9-14.23 0.9-18.23L0.9-18.23Q0.9-22.3 2.3-25.71 3.7-29.13 6.21-31.6 8.72-34.08 12.23-35.45 15.73-36.83 19.95-36.83L19.95-36.83Q22-36.83 23.81-36.46 25.63-36.1 27.2-35.46 28.78-34.83 30.1-33.94 31.43-33.05 32.45-31.98L32.45-31.98 29.6-28.15Q29.33-27.8 28.95-27.51 28.58-27.23 27.9-27.23L27.9-27.23Q27.45-27.23 27.05-27.43 26.65-27.63 26.2-27.91 25.75-28.2 25.21-28.54 24.68-28.88 23.94-29.16 23.2-29.45 22.21-29.65 21.23-29.85 19.9-29.85L19.9-29.85Q17.6-29.85 15.7-29.04 13.8-28.23 12.44-26.71 11.08-25.2 10.31-23.05 9.55-20.9 9.55-18.23L9.55-18.23Q9.55-15.43 10.31-13.25 11.08-11.08 12.39-9.59 13.7-8.1 15.45-7.33 17.2-6.55 19.2-6.55L19.2-6.55Q20.35-6.55 21.3-6.66 22.25-6.78 23.06-7.05 23.88-7.33 24.61-7.76 25.35-8.2 26.1-8.85L26.1-8.85Q26.4-9.1 26.75-9.26 27.1-9.43 27.48-9.43ZM52.53-25.93L60.28-25.93 60.28 0 52.53 0 52.53-25.93ZM61.18-33.02L61.18-33.02Q61.18-32.1 60.8-31.29 60.43-30.48 59.78-29.86 59.13-29.25 58.26-28.89 57.4-28.53 56.43-28.53L56.43-28.53Q55.48-28.53 54.65-28.89 53.83-29.25 53.19-29.86 52.55-30.48 52.19-31.29 51.83-32.1 51.83-33.02L51.83-33.02Q51.83-33.98 52.19-34.8 52.55-35.63 53.19-36.25 53.83-36.88 54.65-37.23 55.48-37.58 56.43-37.58L56.43-37.58Q57.4-37.58 58.26-37.23 59.13-36.88 59.78-36.25 60.43-35.63 60.8-34.8 61.18-33.98 61.18-33.02ZM90.7 0L82.95 0 82.95-25.93 87.75-25.93Q88.48-25.93 88.96-25.6 89.45-25.28 89.65-24.63L89.65-24.63 90.1-23.13Q90.85-23.83 91.65-24.43 92.45-25.03 93.36-25.44 94.28-25.85 95.34-26.09 96.4-26.33 97.65-26.33L97.65-26.33Q99.78-26.33 101.41-25.59 103.05-24.85 104.18-23.54 105.3-22.23 105.88-20.41 106.45-18.6 106.45-16.48L106.45-16.48 106.45 0 98.7 0 98.7-16.48Q98.7-18.38 97.83-19.44 96.95-20.5 95.25-20.5L95.25-20.5Q93.98-20.5 92.85-19.95 91.73-19.4 90.7-18.48L90.7-18.48 90.7 0ZM139.48-26.33L139.48-26.33Q142.05-26.33 144.19-25.53 146.33-24.73 147.87-23.2 149.4-21.68 150.27-19.46 151.13-17.25 151.13-14.45L151.13-14.45Q151.13-13.58 151.05-13.03 150.98-12.48 150.78-12.15 150.58-11.83 150.24-11.7 149.9-11.58 149.38-11.58L149.38-11.58 134.43-11.58Q134.8-8.33 136.4-6.86 138-5.4 140.53-5.4L140.53-5.4Q141.88-5.4 142.85-5.73 143.83-6.05 144.59-6.45 145.35-6.85 145.99-7.18 146.63-7.5 147.33-7.5L147.33-7.5Q148.25-7.5 148.73-6.83L148.73-6.83 150.98-4.05Q149.78-2.68 148.39-1.81 147-0.95 145.54-0.46 144.08 0.03 142.62 0.21 141.15 0.4 139.83 0.4L139.83 0.4Q137.1 0.4 134.72-0.49 132.33-1.38 130.54-3.13 128.75-4.88 127.72-7.48 126.68-10.08 126.68-13.53L126.68-13.53Q126.68-16.13 127.57-18.45 128.45-20.78 130.12-22.53 131.78-24.28 134.14-25.3 136.5-26.33 139.48-26.33ZM139.63-20.98L139.63-20.98Q137.4-20.98 136.15-19.71 134.9-18.45 134.5-16.07L134.5-16.07 144.18-16.07Q144.18-17 143.94-17.88 143.7-18.75 143.17-19.44 142.63-20.13 141.75-20.55 140.88-20.98 139.63-20.98ZM179.75 0L172 0 172-25.93 176.8-25.93Q177.53-25.93 178.02-25.6 178.5-25.28 178.7-24.63L178.7-24.63 179.13-23.23Q179.78-23.9 180.48-24.46 181.18-25.03 181.99-25.44 182.8-25.85 183.74-26.09 184.68-26.33 185.8-26.33L185.8-26.33Q188.15-26.33 189.69-25.11 191.23-23.9 192.03-21.88L192.03-21.88Q192.68-23.08 193.62-23.93 194.55-24.78 195.64-25.3 196.73-25.83 197.94-26.08 199.15-26.33 200.35-26.33L200.35-26.33Q202.58-26.33 204.3-25.66 206.03-25 207.19-23.74 208.35-22.48 208.95-20.64 209.55-18.8 209.55-16.48L209.55-16.48 209.55 0 201.8 0 201.8-16.48Q201.8-20.5 198.35-20.5L198.35-20.5Q196.78-20.5 195.74-19.46 194.7-18.43 194.7-16.48L194.7-16.48 194.7 0 186.95 0 186.95-16.48Q186.95-18.7 186.08-19.6 185.2-20.5 183.5-20.5L183.5-20.5Q182.45-20.5 181.52-20.03 180.58-19.55 179.75-18.75L179.75-18.75 179.75 0ZM252.93 0L249.38 0Q248.28 0 247.72-0.3 247.16-0.6 246.78-1.55L246.78-1.55 246.23-2.98Q245.26-2.15 244.36-1.53 243.46-0.9 242.49-0.46 241.53-0.03 240.44 0.19 239.36 0.4 238.03 0.4L238.03 0.4Q236.26 0.4 234.81-0.06 233.36-0.53 232.34-1.43 231.33-2.33 230.78-3.66 230.23-5 230.23-6.75L230.23-6.75Q230.23-8.13 230.93-9.58 231.63-11.03 233.36-12.21 235.08-13.4 238.01-14.2 240.93-15 245.38-15.1L245.38-15.1 245.38-16.2Q245.38-18.48 244.44-19.49 243.51-20.5 241.78-20.5L241.78-20.5Q240.41-20.5 239.53-20.2 238.66-19.9 237.97-19.53 237.28-19.15 236.63-18.85 235.98-18.55 235.08-18.55L235.08-18.55Q234.28-18.55 233.72-18.94 233.16-19.33 232.83-19.9L232.83-19.9 231.43-22.33Q233.78-24.4 236.64-25.41 239.51-26.43 242.78-26.43L242.78-26.43Q245.13-26.43 247.02-25.66 248.91-24.9 250.22-23.54 251.53-22.18 252.23-20.3 252.93-18.43 252.93-16.2L252.93-16.2 252.93 0ZM240.48-4.73L240.48-4.73Q241.98-4.73 243.11-5.25 244.23-5.78 245.38-6.95L245.38-6.95 245.38-10.55Q243.06-10.45 241.56-10.15 240.06-9.85 239.18-9.4 238.31-8.95 237.97-8.38 237.63-7.8 237.63-7.13L237.63-7.13Q237.63-5.8 238.36-5.26 239.08-4.73 240.48-4.73ZM292.46-22.98L290.71-20.25Q290.41-19.78 290.07-19.58 289.73-19.38 289.21-19.38L289.21-19.38Q288.66-19.38 288.11-19.61 287.56-19.85 286.92-20.13 286.28-20.4 285.48-20.64 284.68-20.88 283.66-20.88L283.66-20.88Q282.18-20.88 281.39-20.31 280.61-19.75 280.61-18.75L280.61-18.75Q280.61-18.03 281.12-17.55 281.63-17.07 282.48-16.71 283.33-16.35 284.41-16.03 285.48-15.7 286.61-15.3 287.73-14.9 288.81-14.36 289.88-13.83 290.73-13.04 291.58-12.25 292.09-11.13 292.61-10 292.61-8.43L292.61-8.43Q292.61-6.5 291.91-4.88 291.21-3.25 289.82-2.08 288.43-0.9 286.39-0.25 284.36 0.4 281.71 0.4L281.71 0.4Q280.38 0.4 279.06 0.15 277.73-0.1 276.49-0.53 275.26-0.95 274.21-1.54 273.16-2.13 272.41-2.8L272.41-2.8 274.21-5.65Q274.53-6.15 274.98-6.44 275.43-6.73 276.16-6.73L276.16-6.73Q276.83-6.73 277.37-6.43 277.91-6.13 278.53-5.78 279.16-5.43 279.99-5.13 280.83-4.83 282.11-4.83L282.11-4.83Q283.01-4.83 283.63-5.01 284.26-5.2 284.63-5.53 285.01-5.85 285.18-6.25 285.36-6.65 285.36-7.08L285.36-7.08Q285.36-7.85 284.83-8.35 284.31-8.85 283.46-9.21 282.61-9.58 281.52-9.89 280.43-10.2 279.31-10.6 278.18-11 277.09-11.56 276.01-12.13 275.16-12.99 274.31-13.85 273.78-15.1 273.26-16.35 273.26-18.13L273.26-18.13Q273.26-19.78 273.89-21.26 274.53-22.75 275.81-23.88 277.08-25 279.01-25.66 280.93-26.33 283.51-26.33L283.51-26.33Q284.91-26.33 286.22-26.08 287.53-25.83 288.68-25.38 289.83-24.93 290.78-24.31 291.73-23.7 292.46-22.98L292.46-22.98Z" opacity="1" transform="matrix(1,0,0,1,0,0)" fill="#ffdc00" class="slogan-text-1" data-fill-palette-color="secondary" id="text-1"></path></svg></g></svg></g></svg></g></svg></g><g><svg viewBox="0 0 245.65351679999998 229.96990449407997" height="229.96990449407997" width="245.65351679999998"><g><svg xmlns="http://www.w3.org/2000/svg" xmlns:xlink="http://www.w3.org/1999/xlink" version="1.1" x="0" y="0" viewBox="5 7.872999999999999 90 84.254" enable-background="new 0 0 100 100" xml:space="preserve" height="229.96990449407997" width="245.65351679999998" class="icon-icon-0" data-fill-palette-color="accent" id="icon-0"><g fill="#ffdc00" data-fill-palette-color="accent"><path fill="#ffdc00" d="M60.532 7.873c-8.872 0-16.168 6.702-17.122 15.319h-4.058c-0.954-8.617-8.247-15.319-17.118-15.319C12.712 7.873 5 15.588 5 25.106c0 9.518 7.712 17.234 17.234 17.234 8.198 0 15.046-5.733 16.792-13.404h4.709c1.747 7.671 8.595 13.404 16.797 13.404 9.518 0 17.233-7.716 17.233-17.234C77.766 15.588 70.05 7.873 60.532 7.873" data-fill-palette-color="accent"></path><path fill="#ffdc00" d="M91.17 40.425c-2.116 0-3.829 1.717-3.829 3.83v2.461l-10.103 2.887c-0.822 0.234-1.388 0.987-1.388 1.84v8.6c0 0.856 0.565 1.606 1.388 1.842l10.103 2.887v2.461c0 2.113 1.713 3.83 3.829 3.83 2.113 0 3.83-1.717 3.83-3.83V44.255C95 42.142 93.283 40.425 91.17 40.425" data-fill-palette-color="accent"></path><path fill="#ffdc00" d="M41.383 37.837c-4.144 6.279-11.22 10.248-19.148 10.248-4.189 0-8.104-1.145-11.489-3.108v18.427c0 2.115 1.713 3.83 3.829 3.83h15.548L10.745 86.697v5.43h5.396l24.793-24.894h0.976l24.789 24.894h5.322v-5.513L52.719 67.234h15.473c2.113 0 3.83-1.715 3.83-3.83V44.977c-3.389 1.963-7.305 3.108-11.489 3.108C52.6 48.085 45.523 44.117 41.383 37.837" data-fill-palette-color="accent"></path></g></svg></g></svg></g></svg></g><defs></defs></svg><rect width="395.52" height="134.7578058384977" fill="none" stroke="none" visibility="hidden"></rect></g></svg></g></svg>