<svg xmlns="http://www.w3.org/2000/svg" version="1.1" xmlns:xlink="http://www.w3.org/1999/xlink" xmlns:svgjs="http://svgjs.dev/svgjs" width="2000" height="1247" viewBox="0 0 2000 1247"><g transform="matrix(1,0,0,1,-1.2121212121211329,0.504858299595071)"><svg viewBox="0 0 396 247" data-background-color="#ffffff" preserveAspectRatio="xMidYMid meet" height="1247" width="2000" xmlns="http://www.w3.org/2000/svg" xmlns:xlink="http://www.w3.org/1999/xlink"><g id="tight-bounds" transform="matrix(1,0,0,1,0.2400000000000091,-0.09999999999999432)"><svg viewBox="0 0 395.52 247.2" height="247.2" width="395.52"><g><svg></svg></g><g><svg viewBox="0 0 395.52 247.2" height="247.2" width="395.52"><g transform="matrix(1,0,0,1,75.54432,55.04112759302312)"><svg viewBox="0 0 244.43135999999998 137.11774481395375" height="137.11774481395375" width="244.43135999999998"><g><svg viewBox="0 0 244.43135999999998 137.11774481395375" height="137.11774481395375" width="244.43135999999998"><g><svg viewBox="0 0 244.43135999999998 137.11774481395375" height="137.11774481395375" width="244.43135999999998"><g><svg viewBox="0 0 244.43135999999998 137.11774481395375" height="137.11774481395375" width="244.43135999999998"><g id="textblocktransform"><svg viewBox="0 0 244.43135999999998 137.11774481395375" height="137.11774481395375" width="244.43135999999998" id="textblock"><g><svg viewBox="0 0 244.43135999999998 84.74122650231124" height="84.74122650231124" width="244.43135999999998"><g transform="matrix(1,0,0,1,0,0)"><svg width="244.43135999999998" viewBox="2.2699999809265137 -42.189998626708984 126.75000762939453 43.94999694824219" height="84.74122650231124" data-palette-color="#bc13fe"><path d="M15.55-18.36L15.55-20.12 26.15-20.12Q28.56-20.12 30.24-21.68 31.91-23.24 31.91-26.12L31.91-26.12Q31.91-28.25 30.15-29.94 28.39-31.64 26.15-31.64L26.15-31.64 11.06-31.64 11.06 0 9.3 0 9.3-33.4 26.15-33.4Q29.13-33.4 31.4-31.19 33.67-28.98 33.67-26.12L33.67-26.12Q33.67-22.61 31.47-20.48 29.27-18.36 26.15-18.36L26.15-18.36 15.55-18.36ZM15.55-14.84L15.55-16.6 26.15-16.6Q29.96-16.6 32.69-19.27 35.42-21.95 35.42-26.12L35.42-26.12Q35.42-29.71 32.63-32.43 29.83-35.16 26.15-35.16L26.15-35.16 7.54-35.16 7.54 0 5.79 0 5.79-36.91 26.15-36.91Q29.05-36.91 31.6-35.42 34.16-33.94 35.67-31.43 37.18-28.93 37.18-26.12L37.18-26.12Q37.18-21.31 33.92-18.08 30.66-14.84 26.15-14.84L26.15-14.84 15.55-14.84ZM15.55-11.33L15.55-13.09 26.15-13.09Q29.57-13.09 32.5-14.77 35.42-16.46 37.18-19.47 38.94-22.49 38.94-26.12L38.94-26.12Q38.94-29.42 37.19-32.31 35.45-35.21 32.5-36.94 29.54-38.67 26.15-38.67L26.15-38.67 4.03-38.67 4.03 0 2.27 0 2.27-40.43 26.15-40.43Q29.98-40.43 33.35-38.46 36.72-36.5 38.71-33.19 40.7-29.88 40.7-26.12L40.7-26.12Q40.7-21.78 38.83-18.48 36.96-15.19 33.76-13.33L33.76-13.33 38.31 0 36.45 0 32.1-12.5Q31.13-12.11 30.62-11.96L30.62-11.96 34.69 0 32.84 0 28.86-11.55Q28.64-11.5 27.29-11.38L27.29-11.38 31.08 0 29.22 0 25.49-11.33 23.9-11.33 27.47 0 25.61 0 22.02-11.33 15.55-11.33ZM14.58-28.13L14.58 0 12.82 0 12.82-29.88 26.15-29.88Q27.78-29.88 28.97-28.77 30.15-27.66 30.15-26.12L30.15-26.12Q30.15-21.88 26.15-21.88L26.15-21.88 15.55-21.88 15.55-23.63 26.15-23.63Q27.2-23.63 27.8-24.18 28.39-24.73 28.39-26.12L28.39-26.12Q28.39-26.98 27.75-27.55 27.1-28.13 26.15-28.13L26.15-28.13 14.58-28.13ZM76.76 0L76.76-21.12 78.51-21.12 78.51 0 76.76 0ZM83.79 0L83.79-21.12 85.54-21.12 85.54 0 83.79 0ZM80.27 0L80.27-21.12 82.03-21.12 82.03 0 80.27 0ZM73.24-21.12L75-21.12 75 0Q70.36 1.76 65.38 1.76L65.38 1.76Q61.06 1.76 57.1 0.17 53.15-1.42 50.14-4.24 47.14-7.06 45.35-11.22 43.55-15.38 43.55-20.21L43.55-20.21Q43.55-24.68 45.3-28.75 47.04-32.81 49.99-35.75 52.93-38.7 56.99-40.44 61.06-42.19 65.52-42.19L65.52-42.19Q71.09-42.19 75.88-39.6 80.66-37.01 83.69-32.57L83.69-32.57 82.22-31.62Q79.44-35.69 75.03-38.06 70.63-40.43 65.52-40.43L65.52-40.43Q61.42-40.43 57.68-38.83 53.93-37.23 51.22-34.52 48.51-31.81 46.91-28.06 45.31-24.32 45.31-20.21L45.31-20.21Q45.31-15.8 46.96-11.96 48.61-8.13 51.35-5.54 54.1-2.95 57.74-1.48 61.37 0 65.31 0L65.31 0Q69.43 0 73.24-1.29L73.24-1.29 73.24-2.98Q69.6-1.76 65.6-1.76L65.6-1.76Q62.69-1.76 59.95-2.58 57.2-3.39 54.87-4.99 52.54-6.59 50.79-8.8 49.05-11.01 48.06-13.95 47.07-16.89 47.07-20.21L47.07-20.21Q47.07-25.22 49.55-29.47 52.02-33.72 56.27-36.19 60.52-38.67 65.52-38.67L65.52-38.67Q70.21-38.67 74.24-36.49 78.27-34.3 80.81-30.57L80.81-30.57 79.34-29.61Q77.05-32.98 73.4-34.95 69.75-36.91 65.52-36.91L65.52-36.91Q62.13-36.91 59.03-35.6 55.93-34.28 53.7-32.04 51.46-29.81 50.14-26.71 48.83-23.61 48.83-20.21L48.83-20.21Q48.83-17.16 49.72-14.49 50.61-11.82 52.18-9.83 53.76-7.84 55.86-6.41 57.96-4.98 60.43-4.25 62.91-3.52 65.52-3.52L65.52-3.52Q69.58-3.52 73.24-4.88L73.24-4.88 73.24-6.64Q69.63-5.25 65.7-5.25L65.7-5.25Q62.72-5.25 60.01-6.26 57.3-7.28 55.19-9.13 53.07-10.99 51.83-13.87 50.58-16.75 50.58-20.21L50.58-20.21Q50.58-24.27 52.59-27.71 54.59-31.15 58.03-33.15 61.47-35.16 65.52-35.16L65.52-35.16Q69.31-35.16 72.57-33.4 75.83-31.64 77.88-28.61L77.88-28.61 76.41-27.66Q74.61-30.3 71.74-31.85 68.87-33.4 65.52-33.4L65.52-33.4Q61.94-33.4 58.91-31.63 55.88-29.86 54.11-26.83 52.34-23.8 52.34-20.21L52.34-20.21Q52.34-17.72 53.05-15.58 53.76-13.43 55-11.87 56.25-10.3 57.92-9.2 59.59-8.11 61.52-7.56 63.45-7.01 65.52-7.01L65.52-7.01Q69.65-7.01 73.24-8.64L73.24-8.64 73.24-10.33Q69.77-8.79 65.74-8.79L65.74-8.79Q63.43-8.79 61.37-9.5 59.32-10.21 57.68-11.57 56.03-12.94 55.06-15.17 54.1-17.41 54.1-20.21L54.1-20.21Q54.1-22.53 55-24.65 55.91-26.76 57.44-28.3 58.98-29.83 61.09-30.74 63.21-31.64 65.52-31.64L65.52-31.64Q68.43-31.64 70.92-30.29 73.41-28.93 74.97-26.61L74.97-26.61 73.53-25.66Q72.21-27.61 70.1-28.75 67.99-29.88 65.52-29.88L65.52-29.88Q61.52-29.88 58.69-27.05 55.86-24.22 55.86-20.21L55.86-20.21Q55.86-17.75 56.66-15.86 57.47-13.96 58.87-12.83 60.28-11.69 62-11.12 63.72-10.55 65.7-10.55L65.7-10.55Q69.75-10.55 73.24-12.23L73.24-12.23 73.24-21.12ZM116.72-14.09L116.72-14.09Q116.72-15.04 116.14-15.36 115.57-15.67 114.47-15.67L114.47-15.67 103.14-15.67 103.14-17.43 114.47-17.43Q118.48-17.43 118.48-14.09L118.48-14.09Q118.48-12.21 117.38-11.38 116.28-10.55 114.47-10.55L114.47-10.55 103.14-10.55 103.14-12.3 114.47-12.3Q116.72-12.3 116.72-14.09ZM102.17-28.13L102.17 0 100.41 0 100.41-29.88 114.47-29.88Q116.13-29.88 117.3-28.87 118.48-27.86 118.48-26.34L118.48-26.34Q118.48-24.34 117.38-23.45 116.28-22.56 114.47-22.56L114.47-22.56 103.14-22.56 103.14-24.32 114.47-24.32Q116.72-24.32 116.72-26.34L116.72-26.34Q116.72-27.17 116.08-27.65 115.45-28.13 114.47-28.13L114.47-28.13 102.17-28.13ZM103.14-19.04L103.14-20.8 114.47-20.8Q116.89-20.8 118.56-22.25 120.23-23.71 120.23-26.34L120.23-26.34Q120.23-28.47 118.49-30.05 116.74-31.64 114.47-31.64L114.47-31.64 98.65-31.64 98.65 0 96.89 0 96.89-33.4 114.47-33.4Q117.48-33.4 119.73-31.29 121.99-29.17 121.99-26.34L121.99-26.34Q121.99-24.12 120.95-22.46 119.92-20.8 118.16-19.9L118.16-19.9Q121.99-18.53 121.99-14.33L121.99-14.33Q121.99-11.01 119.79-9.02 117.6-7.03 114.47-7.03L114.47-7.03 103.14-7.03 103.14-8.79 114.47-8.79Q116.89-8.79 118.56-10.24 120.23-11.69 120.23-14.33L120.23-14.33Q120.23-16.11 118.96-17.48 117.7-18.85 115.23-19.07L115.23-19.07Q114.99-19.04 114.47-19.04L114.47-19.04 103.14-19.04ZM125.51-26.34L125.51-26.34Q125.51-22.92 123.09-20.17L123.09-20.17Q125.51-17.48 125.51-14.33L125.51-14.33Q125.51-11.28 123.98-8.78 122.46-6.27 119.93-4.9 117.4-3.52 114.47-3.52L114.47-3.52 103.14-3.52 103.14-5.27 114.47-5.27Q118.28-5.27 121.02-7.82 123.75-10.38 123.75-14.33L123.75-14.33Q123.75-15.75 123.03-17.47 122.31-19.19 121.04-20.09L121.04-20.09Q123.75-22.63 123.75-26.34L123.75-26.34Q123.75-29.91 120.97-32.53 118.18-35.16 114.47-35.16L114.47-35.16 95.14-35.16 95.14 0 93.38 0 93.38-36.91 114.47-36.91Q117.38-36.91 119.93-35.49 122.48-34.06 123.99-31.6 125.51-29.15 125.51-26.34ZM125.09-20.07L125.09-20.07Q127.27-22.97 127.27-26.34L127.27-26.34Q127.27-29.64 125.52-32.48 123.77-35.33 120.82-37 117.87-38.67 114.47-38.67L114.47-38.67 91.62-38.67 91.62 0 89.86 0 89.86-40.43 114.47-40.43Q118.33-40.43 121.69-38.53 125.04-36.62 127.03-33.36 129.02-30.1 129.02-26.34L129.02-26.34Q129.02-22.75 127-20.04L127-20.04Q129.02-17.24 129.02-14.33L129.02-14.33Q129.02-11.06 127.85-8.34 126.68-5.62 124.69-3.81 122.7-2 120.06-1 117.43 0 114.47 0L114.47 0 103.14 0 103.14-1.76 114.47-1.76Q117.04-1.76 119.38-2.72 121.72-3.69 123.46-5.35 125.19-7.01 126.23-9.35 127.27-11.69 127.27-14.33L127.27-14.33Q127.27-15.5 126.72-17.15 126.17-18.8 125.09-20.07Z" opacity="1" transform="matrix(1,0,0,1,0,0)" fill="#000000" class="wordmark-text-0" data-fill-palette-color="primary" id="text-0"></path></svg></g></svg></g><g transform="matrix(1,0,0,1,0,104.74659629007087)"><svg viewBox="0 0 244.43135999999998 32.371148523882894" height="32.371148523882894" width="244.43135999999998"><g transform="matrix(1,0,0,1,0,0)"><svg width="244.43135999999998" viewBox="1.7999999523162842 -38.349998474121094 294.8600158691406 39.04999923706055" height="32.371148523882894" data-palette-color="#bc13fe"><path d="M13.6 0.7L13.6 0.7Q6.45 0.7 3.7-2.4L3.7-2.4Q1.8-4.6 1.8-8.55L1.8-8.55Q1.8-10.25 2.15-12.2L2.15-12.2 4.2-23.7Q6.45-36.35 20.45-36.35L20.45-36.35Q26.25-36.35 29.25-33.88 32.25-31.4 32.25-27.1L32.25-27.1Q32.25-25.1 31.68-23.13 31.1-21.15 30.55-20.2L30.55-20.2 30-19.2 21.15-19.2Q22.8-21.1 22.8-24.6L22.8-24.6Q22.8-26.45 21.85-27.53 20.9-28.6 19.05-28.6L19.05-28.6Q14-28.6 13.05-23L13.05-23 11.3-12.9Q11.05-11.6 11.05-10.35L11.05-10.35Q11.05-7.05 15-7.05L15-7.05Q19.75-7.05 20.7-12.4L20.7-12.4 29.7-12.4 29.45-10.95Q27.45 0.7 13.6 0.7ZM58.76-6.4L58.76-6.4Q59.91-6.4 60.81-6.9L60.81-6.9 60.56-1.25Q58.21 0.7 55.21 0.7L55.21 0.7Q50.66 0.7 49.31-1.4L49.31-1.4Q48.41-2.8 48.41-4.38 48.41-5.95 48.61-7.15L48.61-7.15 51.61-24.05 60.11-24.05 57.31-8.3Q57.26-8 57.26-7.75L57.26-7.75Q57.26-6.4 58.76-6.4ZM52.61-32.2L52.61-32.2Q52.61-35.4 54.04-36.88 55.46-38.35 58.46-38.35L58.46-38.35Q62.66-38.35 62.66-34.65L62.66-34.65Q62.66-31.5 61.24-30.05 59.81-28.6 56.76-28.6L56.76-28.6Q52.61-28.6 52.61-32.2ZM94.72-15.35L94.72-15.35Q94.72-17.5 92.65-17.5 90.57-17.5 89.22-15.95L89.22-15.95 86.42 0 77.92 0 82.17-24.05 90.07-24.05 89.52-21.1Q92.47-24.75 96.97-24.75 101.47-24.75 102.82-22.55L102.82-22.55Q103.67-21.15 103.67-19.35 103.67-17.55 103.42-16L103.42-16 102.07-8.3Q102.02-8 102.02-7.75L102.02-7.75Q102.02-6.4 103.52-6.4L103.52-6.4Q104.67-6.4 105.57-6.9L105.57-6.9 105.32-1.25Q102.97 0.7 99.97 0.7L99.97 0.7Q93.17 0.7 93.17-5L93.17-5Q93.17-6 93.37-7.15L93.37-7.15 94.57-13.8Q94.72-14.7 94.72-15.35ZM133.38 0.7L133.38 0.7Q122.98 0.7 122.98-6.5L122.98-6.5Q122.98-7.5 123.18-8.65L123.18-8.65 124.23-14.85Q125.08-19.65 128.66-22.23 132.23-24.8 138.13-24.8L138.13-24.8Q148.18-24.8 148.18-17.2L148.18-17.2Q148.18-16.1 147.98-14.8L147.98-14.8 147.38-11.25 132.13-11.25 131.93-10.1Q131.83-9.5 131.83-9L131.83-9Q131.83-6.25 135.08-6.25L135.08-6.25Q136.28-6.25 137.13-7 137.98-7.75 138.13-8.75L138.13-8.75 146.43-8.65Q144.78 0.7 133.38 0.7ZM132.63-14.3L139.38-14.3Q139.58-15.15 139.58-15.88 139.58-16.6 138.93-17.35 138.28-18.1 136.86-18.1 135.43-18.1 134.26-17.15 133.08-16.2 132.63-14.3L132.63-14.3ZM207.04-6.4L207.04-6.4Q208.19-6.4 209.09-6.9L209.09-6.9 208.84-1.25Q206.49 0.7 203.49 0.7L203.49 0.7Q196.69 0.7 196.69-5L196.69-5Q196.69-6 196.89-7.15L196.89-7.15 197.94-13.3Q198.09-14.2 198.09-15.1L198.09-15.1Q198.09-17.5 195.47-17.5 192.84-17.5 191.34-15.45L191.34-15.45 188.64 0 180.14 0 182.49-13.3Q182.64-14.2 182.64-15.1L182.64-15.1Q182.64-17.5 179.94-17.5L179.94-17.5Q177.79-17.5 176.24-15.85L176.24-15.85 173.44 0 164.94 0 169.19-24.05 177.09-24.05 176.54-21.05Q179.54-24.75 184.14-24.75L184.14-24.75Q190.64-24.75 191.54-20.45L191.54-20.45Q194.54-24.75 199.57-24.75 204.59-24.75 206.09-22.5L206.09-22.5Q207.09-20.95 207.09-19.1 207.09-17.25 206.84-15.75L206.84-15.75 205.59-8.3Q205.54-8 205.54-7.75L205.54-7.75Q205.54-6.4 207.04-6.4ZM250.25-7.7L250.25-7.7Q250.25-6.4 251.58-6.4 252.9-6.4 253.8-6.9L253.8-6.9 253.55-1.25Q251.15 0.7 248.15 0.7L248.15 0.7Q242.65 0.7 242.05-3.3L242.05-3.3Q239.55 0.7 234.7 0.7L234.7 0.7Q226.5 0.7 226.5-6.35L226.5-6.35Q226.5-7.55 226.75-9L226.75-9 227.8-14.85Q228.6-19.35 231.48-22.03 234.35-24.7 238.98-24.7 243.6-24.7 245.25-22.55L245.25-22.55 245.5-24.05 253.1-24.05 250.3-8.3Q250.25-8 250.25-7.7ZM236.1-13.85L235.45-10.1Q235.35-9.65 235.35-8.85 235.35-8.05 236.1-7.28 236.85-6.5 238.63-6.5 240.4-6.5 241.7-7.9L241.7-7.9 243.2-16.3Q242.65-17.55 240.6-17.55L240.6-17.55Q236.75-17.55 236.1-13.85L236.1-13.85ZM296.66-18.85L296.66-18.85Q296.66-17.2 295.66-15.8L295.66-15.8 287.46-15.8Q287.86-16.1 287.86-16.8 287.86-17.5 287.06-17.93 286.26-18.35 285.01-18.35L285.01-18.35Q281.26-18.35 281.26-16.05L281.26-16.05Q281.26-15.15 282.66-14.75 284.06-14.35 286.06-14.1 288.06-13.85 290.06-13.38 292.06-12.9 293.46-11.5 294.86-10.1 294.86-7.75L294.86-7.75Q294.86-3.6 291.54-1.45 288.21 0.7 281.86 0.7 275.51 0.7 272.96-1.35L272.96-1.35Q270.96-2.95 270.96-5.75L270.96-5.75Q270.96-6.55 271.11-7.4L271.11-7.4 279.46-7.5Q279.36-6.8 280.29-6.28 281.21-5.75 283.01-5.75 284.81-5.75 285.61-6.13 286.41-6.5 286.41-7.55L286.41-7.55Q286.41-8.25 285.01-8.53 283.61-8.8 281.59-9 279.56-9.2 277.54-9.65 275.51-10.1 274.11-11.55 272.71-13 272.71-15.35L272.71-15.35Q272.71-19.9 276.24-22.35 279.76-24.8 286.41-24.8L286.41-24.8Q296.66-24.8 296.66-18.85Z" opacity="1" transform="matrix(1,0,0,1,0,0)" fill="#000000" class="slogan-text-1" data-fill-palette-color="secondary" id="text-1"></path></svg></g></svg></g></svg></g></svg></g></svg></g></svg></g></svg></g><g><path d="M0 123.6c0-68.262 55.338-123.6 123.6-123.6 38.425 0 72.755 17.534 95.425 45.038l-5.006 0c-21.96-25.253-54.325-41.217-90.419-41.217-66.152 0-119.779 53.627-119.779 119.779 0 66.152 53.627 119.779 119.779 119.779 36.094 0 68.458-15.964 90.419-41.217l5.006 0c-22.67 27.504-57 45.038-95.425 45.038-68.262 0-123.6-55.338-123.6-123.6z" fill="#000000" stroke="transparent" data-fill-palette-color="tertiary"></path></g></svg></g><defs></defs></svg><rect width="395.52" height="247.2" fill="none" stroke="none" visibility="hidden"></rect></g></svg></g></svg>